<svg width="137.9055" height="20" viewBox="0 0 2524 366" fill="none" xmlns="http://www.w3.org/2000/svg" style="max-width: 100%;vertical-align: bottom;">
    <path fill-rule="evenodd" clip-rule="evenodd" d="M48.2542 160.943H66.5542C72.9111 160.943 77.9195 160.173 81.6758 158.536C85.4321 156.994 88.9958 154.201 92.2705 150.445L211.702 15.4103C215.362 11.2687 218.926 8.28288 222.297 6.5492C225.764 4.81551 230.098 3.94867 235.396 3.94867H276.715L140.139 158.247C137.057 161.714 133.783 164.892 130.219 167.974C127.233 170.575 123.862 172.79 120.298 174.428C125.018 175.969 129.063 178.184 132.531 181.17C135.998 184.156 139.658 187.912 143.511 192.439L286.154 362.147H244.064C241.367 362.147 238.671 361.954 236.07 361.377C234.144 360.991 232.217 360.317 230.387 359.354C228.75 358.487 227.305 357.428 226.053 356.079C224.705 354.731 223.356 353.286 222.008 351.841L98.1458 209.583C96.5084 207.753 94.7747 206.116 93.0411 204.478C89.4774 201.3 85.0468 199.277 80.3274 198.699C76.9563 198.218 73.5853 198.025 70.2142 198.121H48.1579V362.147H0V3.85236H48.2542V160.847" fill="currentColor"></path>
    <path fill-rule="evenodd" clip-rule="evenodd" d="M404.914 362.147H453.457V3.94897H404.914V362.147Z" fill="currentColor"></path>
    <path fill-rule="evenodd" clip-rule="evenodd" d="M644.259 5.49003C646.377 6.5495 648.689 8.76476 651.386 12.1358L859.139 282.109C858.657 277.775 858.272 273.537 858.08 269.492C857.887 265.543 857.887 261.594 857.887 257.645V3.94897H900.458V362.147H875.898C872.045 362.147 868.867 361.473 866.266 360.125C863.666 358.776 861.162 356.561 858.657 353.383L651.193 83.6021C651.482 87.7437 651.771 91.8853 651.964 95.8342C652.156 99.8795 652.253 103.539 652.253 106.814V362.051H609.681V3.94897H634.723C639.057 3.94897 642.236 4.43055 644.355 5.58634" fill="currentColor"></path>
    <path fill-rule="evenodd" clip-rule="evenodd" d="M1268.96 3.94897V43.4384H1096.75V162.485H1236.12V200.433H1096.75V322.658H1268.96V362.147H1048.01V3.94897H1268.96Z" fill="currentColor"></path>
    <path fill-rule="evenodd" clip-rule="evenodd" d="M2106.33 183.193C2106.33 210.065 2102.09 234.625 2093.62 257.067C2085.14 279.508 2073.1 298.772 2057.59 314.953C2042.09 331.134 2023.5 343.655 2001.63 352.612C1979.87 361.569 1955.79 366 1929.4 366C1903.01 366 1879.02 361.569 1857.35 352.612C1835.68 343.751 1817.09 331.134 1801.59 314.953C1786.08 298.772 1774.04 279.508 1765.56 257.067C1757.09 234.625 1752.85 210.065 1752.85 183.193C1752.85 156.321 1757.09 131.76 1765.56 109.318C1774.04 86.8768 1786.08 67.6137 1801.59 51.3363C1817.09 35.0589 1835.68 22.4416 1857.35 13.4842C1879.02 4.52684 1903.1 0 1929.4 0C1955.69 0 1979.87 4.52684 2001.63 13.4842C2023.4 22.5379 2042.09 35.1553 2057.59 51.3363C2073.1 67.6137 2085.14 86.8768 2093.62 109.318C2102.09 131.76 2106.33 156.321 2106.33 183.193ZM2056.53 183.193C2056.53 161.233 2053.55 141.392 2047.58 123.958C2041.61 106.429 2033.03 91.6926 2022.05 79.5568C2011.07 67.5174 1997.69 58.1747 1981.99 51.7216C1966.29 45.2684 1948.76 41.9937 1929.4 41.9937C1910.04 41.9937 1892.8 45.2684 1877.1 51.7216C1861.78 57.9821 1848.11 67.4211 1836.93 79.5568C1825.86 91.5963 1817.29 106.429 1811.31 123.958C1805.34 141.488 1802.36 161.233 1802.36 183.193C1802.36 205.153 1805.34 224.897 1811.31 242.331C1817.29 259.764 1825.86 274.5 1836.93 286.636C1848.11 298.772 1861.78 308.211 1877.1 314.375C1892.8 320.828 1910.23 324.006 1929.4 324.006C1948.56 324.006 1966.29 320.828 1981.99 314.375C1997.69 308.018 2010.98 298.772 2022.05 286.636C2033.13 274.596 2041.61 259.86 2047.58 242.427C2053.55 224.994 2056.63 205.345 2056.63 183.289" fill="currentColor"></path>
    <path fill-rule="evenodd" clip-rule="evenodd" d="M2267.37 5.49003C2269.49 6.5495 2271.8 8.76476 2274.5 12.1358L2482.25 282.109C2481.77 277.775 2481.38 273.537 2481.29 269.492C2481.09 265.543 2481.09 261.594 2481.09 257.645V3.94897H2523.67V362.147H2499.11C2495.25 362.147 2492.07 361.473 2489.47 360.125C2486.87 358.776 2484.37 356.561 2481.86 353.383L2274.4 83.6021C2274.98 91.3074 2275.36 99.109 2275.36 106.814V362.051H2232.79V3.94897H2257.83C2262.17 3.94897 2265.35 4.43055 2267.47 5.58634" fill="currentColor"></path>
    <path fill-rule="evenodd" clip-rule="evenodd" d="M1555.89 198.121H1497.23L1362.29 361.473H1414.49C1420.66 361.473 1426.44 358.776 1430.48 354.153L1511.87 259.956C1515.53 255.622 1518.61 251.48 1521.02 247.531C1523.62 243.293 1525.45 238.574 1526.51 233.758C1527.76 238.959 1529.59 243.582 1532 247.531C1534.41 251.48 1537.49 255.622 1541.15 259.956L1622.54 354.153C1626.58 358.776 1632.36 361.473 1638.52 361.473H1690.73L1555.79 198.121" fill="#00A7E3"></path>
    <path fill-rule="evenodd" clip-rule="evenodd" d="M1633.04 3.94897C1626.87 3.94897 1621.09 6.64582 1617.05 11.269L1541.25 99.0127C1537.59 103.347 1534.5 107.488 1532.1 111.437C1529.5 115.675 1527.67 120.395 1526.61 125.211C1525.55 120.298 1523.62 115.675 1521.12 111.437C1518.32 107.103 1515.34 102.962 1511.97 99.0127L1435.01 9.92055C1431.74 6.16424 1427.02 3.94897 1422.01 3.94897H1367.78L1497.42 160.847H1556.08L1685.53 3.94897H1633.04Z" fill="#00A7E3"></path>
</svg>